<?xml version="1.0" standalone="no"?>
<!DOCTYPE svg PUBLIC "-//W3C//DTD SVG 1.1//EN" "http://www.w3.org/Graphics/SVG/1.1/DTD/svg11.dtd" >
<svg xmlns="http://www.w3.org/2000/svg">
<metadata>Generated by IcoMoon</metadata>
<defs>
<font id="icomoon" horiz-adv-x="1024">
<font-face units-per-em="1024" ascent="960" descent="-64" />
<missing-glyph horiz-adv-x="1024" />
<glyph unicode="&#x20;" horiz-adv-x="512" d="" />
<glyph unicode="&#xe900;" glyph-name="Vector" horiz-adv-x="2048" d="M1895.352 836.107c-15.577 5.763-57.007 54.674-243.152 39.098-62.307-5.296-242.839-62.307-471.040-133.493l-534.281 215.582-161.066-17.134 429.45-281.472c-148.757-45.796-305.303-92.37-456.241-132.87l-314.183 218.075-87.074-23.677 266.051-339.885-76.793-159.195 111.374 13.24 73.834 106.701c209.433 6.686 417.895 31.44 623.068 73.991l-104.364-420.573 131.933 56.699 204.372 414.186c643.783 153.898 699.235 271.659 711.385 304.526 13.089 37.384-87.54 60.282-103.273 66.201z" />
<glyph unicode="&#xe901;" glyph-name="Polygon-1" horiz-adv-x="935" d="M43.193 861.049c0 55.461 60.634 89.845 109.534 62.115l742.276-420.931c49.228-27.915 49.642-97.761 0.739-125.493l-742.272-420.931c-48.901-27.728-110.277 7.542-110.277 63.381v841.86z" />
<glyph unicode="&#xe902;" glyph-name="ticket" horiz-adv-x="1002" d="M988.044 741.565h-726.817c-2.021 0.001-4.018-0.445-5.846-1.307s-3.442-2.118-4.728-3.677l-30.521-37.064-30.522 37.064c-1.285 1.559-2.9 2.815-4.728 3.677s-3.824 1.308-5.845 1.307h-165.342c-1.799 0-3.581-0.355-5.243-1.043s-3.172-1.698-4.444-2.971c-1.272-1.273-2.281-2.784-2.968-4.445-0.688-1.663-1.041-3.446-1.040-5.245v-540c0-3.633 1.443-7.117 4.011-9.683 2.568-2.569 6.052-4.011 9.684-4.011h165.295c2.021-0.002 4.017 0.445 5.845 1.307s3.443 2.117 4.728 3.677l30.522 37.064 30.521-37.064c1.287-1.56 2.901-2.816 4.728-3.677s3.824-1.309 5.846-1.307h726.864c1.799-0.002 3.58 0.352 5.242 1.040s3.172 1.696 4.443 2.97c1.271 1.271 2.282 2.78 2.97 4.443s1.040 3.444 1.040 5.242v540c0.002 1.801-0.352 3.582-1.037 5.245-0.688 1.663-1.696 3.174-2.97 4.447-1.271 1.273-2.783 2.282-4.445 2.971-1.661 0.688-3.444 1.042-5.242 1.041zM27.391 714.173h145.135l37.009-44.905c1.329-1.489 2.957-2.678 4.778-3.495 1.82-0.815 3.793-1.235 5.788-1.235s3.968 0.421 5.787 1.235c1.821 0.817 3.45 2.006 4.779 3.495l37.009 44.905h706.696v-417.779h-946.98v417.779zM974.347 201.565h-706.656l-37.009 44.907c-1.329 1.487-2.958 2.678-4.779 3.493-1.819 0.815-3.792 1.235-5.787 1.235s-3.967-0.421-5.788-1.235c-1.821-0.815-3.449-2.006-4.777-3.493l-37.010-44.907h-145.15v67.437h946.956v-67.437zM455.477 678.948h-164.724c-2.019 0.002-4.014-0.443-5.841-1.304-1.828-0.864-3.439-2.119-4.724-3.68l-60.080-72.893-60.081 72.902c-1.283 1.558-2.896 2.816-4.723 3.677s-3.822 1.309-5.842 1.307h-73.158c-1.8 0-3.582-0.354-5.245-1.044s-3.173-1.699-4.445-2.972c-1.272-1.276-2.28-2.787-2.968-4.45s-1.040-3.446-1.038-5.245v-319.947c0-3.633 1.443-7.117 4.011-9.686 2.568-2.567 6.052-4.011 9.684-4.011h379.173c3.633 0 7.117 1.445 9.686 4.011 2.569 2.569 4.011 6.053 4.011 9.686v319.947c0 1.799-0.354 3.58-1.042 5.242s-1.696 3.174-2.967 4.445c-1.271 1.273-2.783 2.282-4.443 2.972-1.663 0.688-3.444 1.042-5.245 1.042zM441.783 358.994h-351.783v292.563h52.998l66.522-80.742c1.329-1.487 2.957-2.678 4.777-3.493s3.793-1.238 5.788-1.238c1.995 0 3.966 0.423 5.787 1.238s3.45 2.006 4.777 3.493l66.522 80.742h144.627l-0.016-292.563zM909.239 658.18c-11.384 11.355-26.807 17.733-42.888 17.733-16.079 0-31.501-6.378-42.886-17.733l-56.912-56.91-96.205 22.272c-11.322 2.658-23.136 2.371-34.315-0.83-11.177-3.203-21.35-9.216-29.547-17.466l-21.397-21.397c-1.578-1.576-2.747-3.515-3.406-5.645s-0.786-4.392-0.372-6.583c0.414-2.193 1.358-4.25 2.749-5.993 1.391-1.745 3.188-3.123 5.231-4.014l95.768-41.877-42.801-42.792-83.739-7.756c-3.179-0.283-6.157-1.665-8.421-3.913l-41.479-41.479c-1.687-1.687-2.905-3.787-3.531-6.091-0.628-2.302-0.641-4.73-0.042-7.039 0.601-2.311 1.794-4.423 3.464-6.131 1.667-1.707 3.753-2.947 6.051-3.6l101.574-28.886c18.434-5.238 37.933-5.463 56.483-0.646 18.55 4.815 35.477 14.494 49.036 28.035l213.464 213.466c1.273 1.269 2.284 2.778 2.972 4.439 0.688 1.663 1.044 3.444 1.044 5.24 0 1.799-0.356 3.58-1.044 5.24-0.688 1.663-1.699 3.17-2.972 4.441l-25.88 25.912zM702.286 418.829c-10.104-10.102-22.724-17.321-36.552-20.914s-28.365-3.428-42.109 0.479l-79.153 22.501 21.522 21.522 83.741 7.756c3.181 0.292 6.162 1.69 8.419 3.951l60.489 60.487c1.578 1.576 2.747 3.515 3.406 5.645 0.659 2.133 0.786 4.392 0.372 6.583-0.414 2.193-1.358 4.25-2.749 5.995-1.391 1.743-3.188 3.121-5.231 4.011l-95.784 41.839 7.199 7.199c4.922 4.953 11.032 8.562 17.746 10.48s13.806 2.081 20.602 0.476l103.54-23.964c2.264-0.519 4.621-0.454 6.856 0.185 2.233 0.639 4.267 1.832 5.915 3.47l62.281 62.279c6.244 6.226 14.701 9.721 23.521 9.721 8.818 0 17.277-3.495 23.521-9.721l16.199-16.208-203.752-203.774zM392.869 421.565h-253.956c-3.632 0-7.116-1.443-9.684-4.011s-4.011-6.053-4.011-9.683c0-3.633 1.443-7.117 4.011-9.686 2.568-2.567 6.052-4.011 9.684-4.011h253.956c3.633 0 7.117 1.445 9.686 4.011 2.567 2.569 4.011 6.053 4.011 9.686 0 3.631-1.445 7.115-4.011 9.683-2.569 2.569-6.053 4.011-9.686 4.011zM392.869 471.739h-253.956c-3.632 0-7.116-1.443-9.684-4.011s-4.011-6.053-4.011-9.683c0-3.633 1.443-7.117 4.011-9.686 2.568-2.567 6.052-4.011 9.684-4.011h253.956c3.633 0 7.117 1.445 9.686 4.011 2.567 2.569 4.011 6.053 4.011 9.686 0 3.631-1.445 7.115-4.011 9.683-2.569 2.569-6.053 4.011-9.686 4.011zM392.869 521.913h-253.956c-3.632 0-7.116-1.443-9.684-4.011s-4.011-6.053-4.011-9.683c0-3.633 1.443-7.117 4.011-9.686 2.568-2.567 6.052-4.011 9.684-4.011h253.956c3.633 0 7.117 1.445 9.686 4.011 2.567 2.569 4.011 6.053 4.011 9.686 0 3.631-1.445 7.115-4.011 9.683-2.569 2.569-6.053 4.011-9.686 4.011zM283.457 558.305c0-1.799 0.352-3.582 1.040-5.242 0.688-1.663 1.699-3.172 2.97-4.445 1.271-1.271 2.783-2.28 4.443-2.967 1.663-0.688 3.444-1.042 5.242-1.042h95.722c3.633 0 7.117 1.445 9.683 4.011 2.569 2.569 4.011 6.053 4.011 9.686 0 3.631-1.443 7.115-4.011 9.683-2.567 2.569-6.051 4.011-9.683 4.011h-95.722c-1.799 0.002-3.58-0.352-5.242-1.040-1.661-0.688-3.172-1.696-4.443-2.97-1.271-1.271-2.282-2.783-2.97-4.443-0.688-1.663-1.040-3.444-1.040-5.242z" />
<glyph unicode="&#xe903;" glyph-name="visa" horiz-adv-x="1085" d="M218.72 548.399c0-87.12 70.56-159.119 159.119-159.119 87.841 0 159.119 71.281 159.119 159.119 0 86.401-69.839 159.121-159.119 159.121-87.12 0-159.119-71.281-159.119-159.121zM498.801 491.52h-40.321c2.879 14.399 5.040 29.52 5.040 44.64h47.52c-0.719-15.839-5.040-30.96-12.239-44.64zM244.64 536.16h47.52c0.721-15.12 2.161-29.52 5.040-44.64h-40.319c-7.201 13.681-10.801 28.801-12.241 44.64zM317.36 536.16h48.241v-44.64h-42.482c-3.598 14.399-5.759 29.52-5.759 44.64zM365.601 466.319v-48.239c-12.962 6.48-25.922 23.759-35.281 48.239h35.281zM390.799 417.36v48.241h35.281c-10.080-23.761-22.321-41.040-35.281-48.241zM390.799 491.52v44.64h48.241c-0.721-15.12-2.879-30.241-5.761-44.64h-42.48zM511.76 560.64h-47.52c-0.721 15.12-2.161 29.52-5.040 44.64h40.319c6.48-13.681 10.801-28.801 12.241-44.64zM439.040 560.64h-48.241v44.64h42.48c2.882-14.399 5.040-29.52 5.761-44.64zM390.799 630.481v48.239c12.96-6.48 25.922-23.759 35.281-48.239h-35.281zM365.601 679.44v-48.241h-35.281c9.359 23.761 21.6 41.040 35.281 48.241zM365.601 605.28v-44.64h-48.241c0.719 15.12 2.879 30.241 5.759 44.64h42.482zM292.159 560.64h-47.52c1.44 15.12 5.761 30.241 12.241 44.64h40.319c-2.879-14.399-5.040-29.52-5.040-44.64zM271.999 466.319h31.681c4.321-13.679 10.080-27.359 18-39.6-19.44 9.361-36 22.321-49.68 39.6zM434 426.719c7.92 12.241 13.681 25.201 18 39.6h31.681c-12.96-17.279-30.241-30.239-49.68-39.6zM483.68 630.481h-31.681c-4.319 13.679-10.080 26.638-18 39.6 19.44-9.361 36.721-22.321 49.68-39.6zM321.679 670.081c-7.92-12.241-13.679-25.201-18-39.6h-31.681c13.681 17.279 30.241 30.239 49.68 39.6zM611.84 352.559h-467.28c-7.2 0-12.24-5.759-12.24-12.239v-48.959c0-7.201 5.76-12.241 12.24-12.241h467.28c7.201 0 12.241 5.761 12.241 12.241v48.959c0 6.48-5.761 12.239-12.241 12.239zM598.88 303.6h-442.080v23.761h442.080v-23.761zM513.2 254.64h-270c-7.201 0-12.241-5.761-12.241-12.241v-48.959c0-7.201 5.761-12.239 12.241-12.239h270c7.201 0 12.239 5.759 12.239 12.239v48.959c0 6.48-5.759 12.241-12.239 12.241zM500.24 204.96h-244.799v23.761h244.799v-23.761zM706.161 666.481l43.919 17.279v-21.6l-27.359-33.12c-2.161-2.159-2.882-5.038-2.882-7.92v-30.96c0-9.359 10.080-15.839 18.721-10.799l48.241 26.638c19.44 10.801 31.678 31.681 31.678 54.002v158.399c0 7.2-5.759 12.24-12.239 12.24h-19.44c-20.161 0-37.442-16.56-37.442-37.44v-38.881l-41.040-25.199c-12.239-7.201-19.44-20.881-19.44-35.281v-15.839c0-8.641 9.359-15.12 17.281-11.52zM722 707.521l47.52 29.52c3.6 2.161 5.761 6.48 5.761 10.799v46.080c0 6.48 5.040 12.24 12.239 12.24h6.48v-145.44c0-12.96-7.199-25.199-18.719-31.681l-29.52-16.558v5.038l26.638 32.401c2.161 2.159 2.882 5.040 2.882 7.92v44.64c0 8.641-8.641 15.12-17.281 11.52l-43.201-17.281c0 4.321 2.882 8.641 7.201 10.801zM999.201 689.5c-274.321 274.32-179.282 179.28-200.161 200.16-5.040 5.040-12.96 5.040-18 0l-122.399-123.12c-15.12 21.6-39.6 33.84-65.522 33.84h-11.52v79.92c0 7.92-7.199 13.68-15.118 12.24l-473.761-92.16c-5.76-1.44-10.080-6.48-10.080-12.24v-673.2c0-7.201 5.76-12.241 12.24-12.241h565.201c7.199 0 12.239 5.761 12.239 12.241v230.4l326.16 326.16c5.759 5.040 5.759 12.96 0.721 18zM670.161 742.781l120.238 120.239 146.881-146.879c-13.679-13.681-234.719-234.721-264.239-264.241v268.56c0 7.92-0.721 15.12-2.879 22.321zM556.401 865.18v-64.080h-330.482l330.482 64.080zM107.84 127.9v648h485.279c30.241 0 54.721-24.481 54.721-54.719v-592.56h-540v-0.721zM673.040 381.34v34.56l282.239 282.241 17.281-17.281-299.52-299.52z" />
<glyph unicode="&#xe904;" glyph-name="worldwide" horiz-adv-x="1002" d="M827.218 759.565c37.565 0 68.868 30.522 68.868 68.87s-31.303 68.087-68.868 68.087c-37.565 0-68.871-30.522-68.871-68.87 0-37.565 30.522-68.087 68.871-68.087zM827.218 869.13c22.695 0 41.476-18.783 41.476-41.478s-18.781-41.478-41.476-41.478c-22.697 0-41.479 18.783-41.479 41.478s18 41.478 41.479 41.478zM909.394 600.696c-12.522 26.608-27.392 52.433-44.609 75.912 37.565 25.043 93.131 74.349 93.131 151.044 0 72.783-58.697 130.696-130.696 130.696-72.001 0-131.479-57.913-131.479-130.696v-8.609c-10.173 4.696-20.349 9.391-30.522 14.087-294.26 118.174-619.826-95.478-621.391-420.26-0.782-250.435 201.13-453.915 451.565-454.696 250.435-0.784 453.912 201.129 454.696 451.564 0 1.567 0 2.349 0 3.913 0 64.174-14.087 128.349-40.695 187.045zM827.221 931.739c57.13 0 103.304-46.174 104.085-104.087 0-82.174-81.39-130.696-104.085-141.652-21.914 11.738-104.087 59.478-104.087 141.652 0 57.913 46.173 104.087 104.087 104.087zM820.959 657.827c3.913-1.565 7.827-1.565 10.957 0 0.784 0 3.913 1.565 8.608 4.695 12.522-17.217 23.479-35.217 33.652-54h-81.39l-54.784 54.784c-3.13 3.13-7.825 4.695-12.522 3.913l-161.215-36c-6.262-1.565-10.957-7.043-10.957-13.305v-32.87c0-7.043 4.695-12.522 11.738-13.303l111.131-17.217 27.392-53.219c1.565-3.13 4.695-6.26 8.608-7.043l70.436-19.565v-39.914l-42.262-43.825c-2.349-2.349-3.913-6.262-3.913-9.392v-66.522l-77.477-135.391h-43.044v43.044c0 3.913-1.565 7.827-4.697 10.173l-59.477 54v62.609c0 5.478-3.913 10.957-8.611 12.522l-122.085 44.609v101.739l79.825 86.087c5.478 5.478 4.695 14.087-0.784 19.565l-0.781 0.784-72.782 56.347 59.477 84.523h122.088c3.913 0 7.043 1.565 9.392 3.913l45.39 45.391c12.522-5.478 25.827-11.739 38.349-18.783 25.043-84.523 115.826-126.001 119.739-128.347zM222.263 737.652l34.436-71.217-27.392-14.087c-1.565-0.784-2.349-1.565-3.913-2.349l-64.957-66.522c-3.913-3.911-4.695-9.39-3.13-14.087l9.391-26.608c-10.174-6.26-20.348-14.87-28.174-23.479l-55.565-9.392c20.348 89.219 69.652 169.045 139.305 227.74zM235.567 290.783c-21.912 11.738-104.086 59.479-104.086 141.653 0.783 57.13 47.739 103.304 104.87 102.52 56.347-0.781 102.522-46.173 102.522-102.52 0-82.174-81.392-130.696-103.306-141.653zM72.002 435.565c0.782 15.652 2.348 30.522 4.695 46.173l39.913 7.043c-7.826-16.435-12.522-34.433-12.522-52.433h-32.087v-0.784zM229.307 145.217v-64.174c-98.609 79.827-156.522 199.566-158.087 327.13h35.217c14.87-96.26 118.957-143.218 123.651-145.564 3.913-1.565 7.827-1.565 10.957 0 10.957 5.478 21.13 10.957 31.305 18l14.087-14.087v-37.565l-17.217-25.827c-3.913-5.478-2.349-13.305 2.346-18l3.913-3.913-40.695-24.26c-3.13-2.349-5.478-6.262-5.478-11.74zM496.958-13.653c-86.087 0-169.826 25.827-240.259 74.349v76.695l50.868 30.522c6.262 3.911 8.608 12.522 4.695 18.781-0.781 1.565-1.565 2.349-3.13 3.13l-9.392 7.827 12.522 18.784c1.567 2.346 2.349 4.695 2.349 7.825v46.957c0 3.913-1.565 7.043-3.913 9.392l-14.868 14.868c34.433 27.392 71.998 72.784 71.998 135.393 0 71.998-57.912 130.696-130.696 130.696-15.651 0-30.521-2.349-45.39-7.827l-5.478 15.652 57.131 58.695 37.565 18.784c7.043 3.13 9.392 11.738 6.26 18l-43.041 88.434c112.696 82.957 259.043 105.652 391.304 60.261l-32.87-31.304h-123.652c-4.695 0-8.608-2.348-10.957-5.478l-71.217-100.956c-3.913-6.262-3.13-14.087 3.13-18.784l71.219-54.782-73.565-79.044c-2.349-2.349-3.913-5.478-3.913-9.392v-116.609c0-5.476 3.913-10.955 8.608-12.522l122.088-44.609v-59.477c0-3.913 1.565-7.827 4.695-10.175l59.479-53.998v-50.871c0-7.827 6.262-13.305 13.305-13.305h64.955c4.697 0 9.392 2.349 11.74 7.043l83.739 145.566c1.565 2.349 1.565 4.695 1.565 7.043v64.957l42.26 42.26c2.349 2.349 3.913 6.262 3.913 9.392v55.565c0 6.26-3.913 11.738-10.173 13.303l-75.13 21.132-27.392 53.998c-2.346 3.913-5.478 6.262-10.173 7.046l-106.436 16.433v10.957l143.218 32.087 54-54c2.349-2.346 6.262-3.911 9.392-3.911h100.174c23.479-53.219 35.217-110.349 35.217-169.045 0-234.783-190.956-424.956-425.739-425.739zM235.565 501.304c-37.565 0-68.869-30.522-68.869-68.868 0-37.565 30.522-68.871 68.869-68.871 38.349 0 68.871 30.522 68.871 68.871-0.784 37.565-31.305 68.868-68.871 68.868zM235.565 390.957c-22.695 0-41.478 18.781-41.478 41.479 0 22.695 18.783 41.479 41.478 41.479 22.697 0 41.479-18.784 41.479-41.479 0-22.697-18.781-41.479-41.479-41.479z" />
<glyph unicode="&#xe905;" glyph-name="Frame" d="M988.16 825.303c-1.956 4.085-5.448 7.228-9.713 8.742l-354.017 124.975c-8.883 3.142-18.632-1.525-21.775-10.408l-80.415-227.549h-35.173v58.026c-0.001 7.837-1.802 15.57-5.263 22.602s-8.49 13.175-14.701 17.956c-6.21 4.781-13.435 8.073-21.117 9.622s-15.619 1.312-23.196-0.691l-410.071-108.39c-3.614-0.909-6.825-2.992-9.127-5.922s-3.566-6.543-3.592-10.27v-716.801c0-28.273 22.925-51.2 51.2-51.2h477.865c28.278 0 51.2 22.927 51.2 51.2v154.86l136.873-48.317c8.893-3.128 18.642 1.526 21.775 10.419l249.979 708.106c0.737 2.115 1.055 4.356 0.932 6.594-0.128 2.238-0.691 4.429-1.669 6.447h0.005zM431.498 795.665c2.526 0.666 5.171 0.743 7.732 0.227s4.969-1.612 7.041-3.204c2.072-1.595 3.75-3.645 4.904-5.992s1.754-4.926 1.754-7.542v-58.093h-304.262l282.83 74.602zM546.13-12.805c0-4.526-1.797-8.863-4.997-12.068-3.2-3.2-7.542-4.997-12.068-4.997h-477.865c-4.526 0-8.867 1.797-12.068 4.997-3.201 3.205-4.999 7.542-4.999 12.068v699.734h494.932c4.526 0 8.868-1.798 12.068-4.999s4.997-7.541 4.997-12.068v-682.668zM686.423 621.954l21.842 10.358 10.409-21.775-82.924-234.683c-1.5-4.265-1.249-8.96 0.696-13.041l17.766-37.166-5.489-15.585-33.848 35.052c-1.838 1.915-4.091 3.374-6.589 4.265-2.499 0.886-5.166 1.183-7.798 0.86l-20.224-2.56v22.871l14.556 6.963c4.086 1.951 7.229 5.443 8.745 9.708l34.135 96.526 48.722 138.207zM718.607 508.039l34.652-55.675-5.929-16.774-41.457 36.298 12.733 36.151zM580.265 423.777v46.903l16.794 0.699-16.794-47.602zM609.285 506.038l-29.020-1.192v22.718l41.784 14.575-12.764-36.1zM712.402 131.615l-132.137 46.643v135.014l15.99 2.002 47.16-48.783c1.603-1.633 3.512-2.924 5.622-3.804s4.378-1.326 6.661-1.311c1.219-0.010 2.432 0.123 3.62 0.389 2.842 0.62 5.478 1.951 7.654 3.876 2.181 1.925 3.835 4.372 4.803 7.117l17.065 48.282c1.51 4.265 1.26 8.96-0.701 13.036l-17.848 37.12 23.352 66.135 50.14-43.95c3.113-2.729 7.112-4.234 11.254-4.234 1.454 0 2.908 0.195 4.316 0.568 2.693 0.707 5.176 2.058 7.229 3.948 2.053 1.884 3.615 4.239 4.547 6.866l17.065 48.286c0.85 2.413 1.147 4.986 0.87 7.529s-1.126 4.991-2.478 7.162l-53.422 85.815 20.004 56.64c0.748 2.116 1.070 4.359 0.952 6.6-0.123 2.241-0.681 4.436-1.654 6.46l-20.813 43.533c-0.968 2.023-2.324 3.836-3.994 5.336-1.664 1.499-3.61 2.655-5.724 3.402s-4.357 1.070-6.595 0.95c-2.243-0.119-4.434-0.678-6.456-1.646l-43.561-20.825c-2.017-0.966-3.825-2.32-5.325-3.986-1.495-1.666-2.647-3.61-3.389-5.721l-20.024-56.71-56.32-19.646v106.154c-0.020 8.734-2.278 17.317-6.564 24.927s-10.455 13.993-17.91 18.54l34.15 96.834 39.26 110.933 321.853-113.608-238.653-675.873zM847.048 699.376l11.356 32.192 29.271-10.326-11.361-32.191-29.266 10.325zM612.966 782.019l11.366 32.181 29.256-10.332-11.366-32.183-29.256 10.334zM788.521 720.035l11.366 32.192 29.261-10.334-11.366-32.184-29.261 10.326zM671.488 761.351l11.366 32.183 29.251-10.334-11.366-32.184-29.251 10.334zM730.004 740.709l11.372 32.183 29.256-10.334-11.366-32.181-29.261 10.332zM282.266 618.601c-94.259 0-170.666-76.407-170.666-170.668 0-94.259 76.407-170.665 170.666-170.665s170.666 76.406 170.666 170.665c-0.1 94.21-76.45 170.562-170.666 170.668zM405.507 506.286l-23.283 5.115c-10.24 2.259-20.484 4.049-30.826 5.6-1.549 10.331-3.418 20.612-5.606 30.826l-5.127 23.274c28.412-13.524 51.307-36.41 64.843-64.817zM145.731 447.933c0.034 6.978 0.602 13.943 1.709 20.836l42.201 9.391c6.475 1.434 12.992 2.624 19.525 3.75-1.65-22.623-1.65-45.339 0-67.959-6.535 1.126-13.050 2.324-19.525 3.758l-42.201 9.385c-1.106 6.892-1.676 13.86-1.707 20.838h-0.002zM243.8 486.384c25.582 2.283 51.316 2.283 76.898 0 2.291-25.582 2.291-51.317 0-76.897-25.582-2.294-51.318-2.294-76.9 0-2.291 25.58-2.289 51.315 0.002 76.897zM355.29 481.911c6.541-1.126 13.058-2.317 19.524-3.75l42.208-9.391c2.366-13.791 2.366-27.886 0-41.674l-42.208-9.385c-6.464-1.434-12.983-2.632-19.524-3.773 1.658 22.625 1.658 45.345 0 67.974zM303.090 582.759l9.384-42.225c1.434-6.466 2.641-12.983 3.776-19.524-22.631 1.658-45.353 1.658-67.985 0 1.133 6.541 2.326 13.058 3.776 19.524l9.382 42.225c13.79 2.342 27.876 2.342 41.666 0zM223.901 571.227l-5.127-23.283c-2.25-10.24-4.043-20.484-5.591-30.826-10.331-1.543-20.612-3.407-30.827-5.59l-23.283-5.126c13.546 28.382 36.432 51.248 64.826 64.768l0.002 0.057zM159.039 389.637l23.283-5.125c10.24-2.253 20.473-4.045 30.826-5.596 1.543-10.327 3.407-20.608 5.589-30.822l5.127-23.276c-28.408 13.512-51.308 36.378-64.86 64.768l0.034 0.051zM261.438 313.211l-9.384 42.225c-1.45 6.451-2.641 12.984-3.776 19.507 11.302-0.824 22.652-1.382 34.001-1.382s22.667 0.558 33.984 1.382c-1.133-6.523-2.342-13.056-3.776-19.507l-9.382-42.225c-13.79-2.34-27.876-2.34-41.666 0zM340.628 324.746l5.126 23.281c2.268 10.24 4.043 20.475 5.61 30.828 10.33 1.546 20.609 3.41 30.822 5.591l23.275 5.125c-13.523-28.431-36.423-51.343-64.849-64.876l0.015 0.051zM145.733 140.733h273.066v-34.13h-273.066v34.13zM179.867 72.468h204.799v-34.13h-204.799v34.13zM265.2 209.004h34.134v-34.135h-34.134v34.135zM196.933 209.004h34.134v-34.135h-34.134v34.135zM333.466 209.004h34.134v-34.135h-34.134v34.135z" />
<glyph unicode="&#xe906;" glyph-name="arrow-left" horiz-adv-x="1182" d="M1179.081 408.615c0-44.308-34.469-78.769-76.312-78.769h-755.692l258.462-260.923c32-29.538 32-81.235 0-110.773-14.769-14.761-34.462-22.15-54.154-22.15-22.154 0-41.846 7.389-56.615 22.15l-393.846 393.85c-32 29.538-32 81.231 0 110.769l393.846 393.846c29.538 32 81.231 32 110.769 0 32-29.538 32-81.231 0-110.769l-258.462-258.462h755.692c41.842 0 76.312-36.923 76.312-78.769z" />
<glyph unicode="&#xe907;" glyph-name="arrow-right" horiz-adv-x="1182" d="M1078.193 352l-393.847-393.85c-14.769-14.761-34.462-22.15-54.154-22.15-22.154 0-41.846 7.389-56.615 22.15-32 29.538-32 81.235 0 110.773l258.462 260.923h-753.232c-44.308 0-78.769 34.462-78.769 78.769 0 41.846 34.462 78.769 78.769 78.769h753.232l-258.462 258.462c-32 29.538-32 81.231 0 110.769 29.538 32 81.231 32 110.769 0l393.847-393.846c31.996-29.538 31.996-81.231 0-110.769z" />
<glyph unicode="&#xe908;" glyph-name="visa-icon" horiz-adv-x="975" d="M965.486 829.813c-1.863 3.89-5.188 6.884-9.25 8.326l-337.159 119.023c-8.46 2.993-17.744-1.453-20.738-9.913l-76.585-216.714h-33.499v55.263c0 7.464-1.715 14.828-5.011 21.525s-8.086 12.547-14.001 17.101c-5.914 4.553-12.795 7.688-20.112 9.163s-14.875 1.25-22.092-0.657l-390.544-103.229c-3.442-0.865-6.5-2.849-8.692-5.64s-3.396-6.231-3.421-9.781v-682.664c0-26.931 21.833-48.762 48.762-48.762h455.109c26.931 0 48.762 21.831 48.762 48.762v147.485l130.355-46.017c8.47-2.984 17.754 1.448 20.738 9.918l238.075 674.388c0.702 2.014 1.004 4.149 0.887 6.28-0.122 2.131-0.658 4.218-1.59 6.14h0.005zM435.331 801.586c2.406 0.634 4.925 0.708 7.364 0.217s4.733-1.535 6.706-3.051c1.973-1.519 3.571-3.472 4.671-5.707s1.671-4.692 1.67-7.183v-55.326h-289.773l269.362 71.050zM544.505 31.617c0-4.311-1.712-8.446-4.759-11.493s-7.183-4.759-11.493-4.759h-455.109c-4.311 0-8.445 1.712-11.493 4.759s-4.761 7.183-4.761 11.493v666.41h471.363c4.311 0 8.446-1.713 11.493-4.761s4.759-7.183 4.759-11.493v-650.157zM678.117 636.147l20.802 9.864 9.913-20.738-78.975-223.504c-1.429-4.067-1.19-8.533 0.663-12.425l16.92-35.396-5.227-14.838-32.236 33.382c-1.751 1.819-3.896 3.209-6.276 4.057s-4.92 1.126-7.426 0.819l-19.261-2.438v21.782l13.863 6.632c3.891 1.863 6.885 5.183 8.329 9.245l32.51 91.931 46.402 131.626zM708.769 527.656l33.002-53.024-5.647-15.977-39.483 34.572 12.127 34.43zM577.014 447.41v44.666l15.994 0.667-15.994-45.332zM604.652 525.75l-27.638-1.136v21.636l39.795 13.881-12.156-34.381zM702.859 169.155l-125.845 44.422v128.59l15.228 1.902 44.915-46.46c1.526-1.551 3.345-2.784 5.354-3.623 2.009-0.834 4.169-1.258 6.344-1.248 1.161-0.005 2.316 0.117 3.447 0.371 2.706 0.59 5.218 1.863 7.29 3.691 2.077 1.833 3.652 4.164 4.574 6.778l16.252 45.982c1.438 4.067 1.2 8.533-0.668 12.415l-16.998 35.357 22.24 62.981 47.753-41.857c2.965-2.599 6.773-4.028 10.718-4.028 1.385 0 2.77 0.18 4.111 0.536 2.565 0.673 4.93 1.965 6.885 3.76s3.443 4.042 4.33 6.544l16.252 45.982c0.809 2.299 1.092 4.75 0.829 7.172s-1.073 4.754-2.36 6.822l-50.878 81.729 19.051 53.943c0.712 2.015 1.019 4.151 0.907 6.285-0.117 2.134-0.649 4.225-1.575 6.153l-19.822 41.46c-0.922 1.927-2.214 3.654-3.803 5.081-1.585 1.428-3.438 2.529-5.452 3.24s-4.15 1.019-6.281 0.906c-2.136-0.114-4.223-0.646-6.149-1.567l-41.487-19.834c-1.921-0.92-3.643-2.209-5.071-3.796-1.424-1.586-2.521-3.438-3.228-5.449l-19.071-54.010-53.638-18.71v101.1c-0.020 8.318-2.17 16.492-6.251 23.74s-9.957 13.327-17.057 17.657l32.524 92.222 37.391 105.651 306.527-108.199-227.289-643.69zM831.093 709.882l10.815 30.659 27.877-9.834-10.82-30.659-27.872 9.834zM608.158 788.589l10.825 30.649 27.863-9.84-10.825-30.651-27.863 9.842zM775.353 729.557l10.825 30.659 27.867-9.842-10.825-30.651-27.867 9.834zM663.893 768.906l10.825 30.651 27.858-9.842-10.825-30.651-27.858 9.842zM719.623 749.247l10.83 30.651 27.863-9.842-10.825-30.649-27.867 9.84zM293.206 632.954c-89.77 0-162.539-72.769-162.539-162.538 0-89.771 72.769-162.543 162.539-162.543s162.54 72.772 162.54 162.543c-0.096 89.72-72.809 162.436-162.54 162.538zM410.578 525.987l-22.174 4.872c-9.752 2.152-19.509 3.857-29.359 5.334-1.475 9.839-3.255 19.63-5.339 29.359l-4.883 22.166c27.059-12.88 48.864-34.677 61.755-61.73zM163.172 470.416c0.033 6.642 0.573 13.276 1.628 19.841l40.192 8.943c6.166 1.365 12.373 2.499 18.595 3.572-1.572-21.545-1.572-43.176 0-64.724-6.223 1.073-12.428 2.214-18.595 3.579l-40.192 8.938c-1.053 6.563-1.596 13.2-1.626 19.851h-0.002zM256.571 507.033c24.364 2.174 48.873 2.174 73.236 0 2.182-24.363 2.182-48.871 0-73.237-24.364-2.18-48.875-2.18-73.238 0-2.182 24.366-2.18 48.874 0.002 73.237zM362.752 502.772c6.229-1.073 12.436-2.206 18.594-3.572l40.198-8.943c2.254-13.135 2.254-26.555 0-39.692l-40.198-8.938c-6.156-1.365-12.365-2.506-18.594-3.594 1.579 21.553 1.579 43.188 0 64.739zM313.038 598.819l8.938-40.214c1.365-6.158 2.516-12.365 3.596-18.594-21.554 1.579-43.194 1.579-64.748 0 1.079 6.229 2.215 12.436 3.596 18.594l8.936 40.214c13.134 2.23 26.549 2.23 39.682 0zM237.62 587.835l-4.883-22.174c-2.143-9.752-3.85-19.509-5.325-29.359-9.839-1.47-19.63-3.245-29.359-5.323l-22.174-4.882c12.901 27.030 34.697 48.807 61.739 61.683l0.002 0.055zM175.847 414.891l22.174-4.881c9.752-2.141 19.498-3.847 29.359-5.325 1.469-9.84 3.245-19.632 5.323-29.36l4.883-22.162c-27.056 12.863-48.865 34.645-61.771 61.679l0.033 0.049zM273.37 342.104l-8.938 40.219c-1.381 6.139-2.515 12.361-3.596 18.573 10.764-0.785 21.573-1.317 32.382-1.317s21.587 0.532 32.366 1.317c-1.079-6.212-2.231-12.434-3.596-18.573l-8.936-40.219c-13.133-2.228-26.548-2.228-39.682 0zM348.789 353.090l4.882 22.172c2.16 9.752 3.85 19.505 5.343 29.36 9.838 1.473 19.627 3.248 29.355 5.325l22.167 4.881c-12.879-27.077-34.689-48.894-61.761-61.786l0.015 0.049zM163.174 177.844h260.063v-32.51h-260.063v32.51zM195.682 112.83h195.047v-32.51h-195.047v32.51zM276.952 242.859h32.508v-32.51h-32.508v32.51zM211.936 242.859h32.508v-32.51h-32.508v32.51zM341.968 242.859h32.508v-32.51h-32.508v32.51z" />
<glyph unicode="&#xe909;" glyph-name="arrow-up-right" d="M774.746 661.298v-377.126c0-14.14-5.892-27.102-15.322-36.531-10.607-10.607-23.569-16.499-37.713-16.499-29.461-1.178-54.212 23.569-53.035 53.030l-1.178 248.67-360.623-360.627c-21.213-21.214-54.211-21.214-75.425 0-20.035 20.036-21.213 54.212 0 75.426l360.626 360.624h-247.489c-29.463-1.178-54.211 23.57-53.033 53.033-1.178 29.463 23.57 54.211 53.033 53.033h377.123c29.461 1.178 54.212-23.57 53.035-53.033z" />
<glyph unicode="&#xe90a;" glyph-name="visa-icon1" horiz-adv-x="1002" d="M830.86 356.586c0.837 10.652 1.394 21.241 1.394 31.501v400.828c0 2.7-0.799 5.341-2.295 7.588-1.498 2.248-3.626 4.002-6.117 5.043l-374.181 156.522c-1.676 0.701-3.473 1.062-5.287 1.062-1.816 0-3.613-0.361-5.287-1.062l-374.173-156.522c-2.492-1.041-4.62-2.795-6.118-5.043s-2.296-4.888-2.296-7.588v-400.828c-0.129-79.892 23.431-158.028 67.702-224.53 44.271-66.504 107.264-118.388 181.019-149.097l133.881-56.002c1.674-0.703 3.47-1.064 5.287-1.064 1.814 0 3.613 0.361 5.287 1.064l133.888 56.002c2.066 0.861 4.078 1.81 6.12 2.709 21.836-20.832 47.899-36.724 76.417-46.592 28.521-9.87 58.831-13.488 88.872-10.61s59.112 12.188 85.237 27.296c26.128 15.106 48.696 35.657 66.177 60.258s29.467 52.676 35.139 82.316c5.672 29.64 4.902 60.156-2.262 89.473s-20.549 56.75-39.25 80.435c-18.704 23.686-42.282 43.073-69.138 56.839h-0.016zM444.378-14.064l-128.599 53.789c-68.764 28.634-127.494 77.011-168.769 139.019-41.274 62.005-63.239 134.856-63.119 209.343v391.711l360.486 150.793 360.484-150.793v-391.711c0-6.558-0.218-13.305-0.594-20.035-16.299 5.721-33.242 9.401-50.448 10.957 0.096 3.083 0.174 6.126 0.174 9.094v348.714c0 2.702-0.799 5.343-2.297 7.591-1.496 2.249-3.624 4.005-6.117 5.048l-295.918 123.777c-1.676 0.701-3.473 1.062-5.287 1.062-1.816 0-3.613-0.361-5.287-1.062l-295.92-123.777c-2.49-1.045-4.616-2.802-6.111-5.050s-2.293-4.888-2.294-7.589v-348.73c-0.105-64.452 18.901-127.488 54.615-181.141 35.712-53.651 86.532-95.512 146.031-120.289l103.68-43.364c1.674-0.703 3.47-1.064 5.287-1.064 1.814 0 3.613 0.361 5.287 1.064l93.536 39.13c7.148-15.674 16.193-30.411 26.931-43.881l-125.749-52.607zM524.297 169.419c-0.011-20.805 3.076-41.494 9.156-61.389l-89.075-37.26-98.397 41.158c-54.515 22.697-101.073 61.048-133.794 110.202s-50.132 106.908-50.034 165.957v339.612l282.226 118.057 282.223-118.057v-339.652c0-2.731-0.071-5.547-0.156-8.406-54.305-2.204-105.657-25.306-143.327-64.483-37.67-39.175-58.746-91.392-58.822-145.74zM628.142 20.723v16.809c0.020 19.193 7.653 37.594 21.226 51.167s31.973 21.206 51.164 21.226h68.479c19.193-0.020 37.594-7.653 51.167-21.226 13.57-13.572 21.203-31.973 21.226-51.167v-16.803c-31.058-22.363-68.361-34.395-106.632-34.395s-75.573 12.025-106.63 34.389zM868.441 44.491c-1.774 25.166-13.011 48.727-31.45 65.946s-42.712 26.82-67.94 26.871h-68.479c-25.228-0.049-49.504-9.65-67.942-26.869s-29.676-40.782-31.448-65.948c-24.393 26.061-40.635 58.684-46.728 93.854-6.093 35.172-1.772 71.357 12.43 104.103 14.205 32.748 37.67 60.63 67.513 80.215s64.759 30.019 100.454 30.019c35.693 0 70.609-10.434 100.452-30.019s53.308-47.467 67.513-80.215c14.202-32.746 18.523-68.931 12.43-104.103-6.093-35.17-22.334-67.793-46.728-93.854h-0.078zM734.76 313.446c-15.369 0.857-30.644-2.918-43.845-10.839-13.203-7.918-23.723-19.616-30.204-33.581s-8.622-29.554-6.144-44.747c2.475-15.195 9.454-29.298 20.033-40.481s24.269-18.937 39.302-22.256c15.033-3.317 30.716-2.048 45.018 3.644 14.305 5.692 26.571 15.547 35.212 28.287s13.263 27.779 13.263 43.175c0.514 19.805-6.841 39.008-20.456 53.402-13.613 14.394-32.376 22.806-52.179 23.396zM734.76 187.25c-9.955-0.877-19.944 1.276-28.656 6.173-8.711 4.9-15.741 12.315-20.164 21.277-4.425 8.962-6.037 19.051-4.628 28.946s5.774 19.133 12.526 26.504c6.749 7.371 15.569 12.528 25.302 14.801 9.735 2.271 19.926 1.547 29.242-2.075 9.314-3.622 17.319-9.973 22.962-18.223 5.641-8.248 8.662-18.009 8.659-28.004 0.521-12.546-3.945-24.787-12.424-34.048-8.477-9.263-20.275-14.792-32.819-15.382v0.031zM444.376 737.739c-34.304 0-67.836-10.171-96.358-29.231-28.523-19.058-50.753-46.145-63.88-77.837s-16.562-66.564-9.87-100.21c6.692-33.645 23.211-64.55 47.467-88.805 24.258-24.255 55.16-40.775 88.805-47.467 33.645-6.694 68.519-3.259 100.21 9.87 31.693 13.127 58.782 35.357 77.84 63.88 19.058 28.521 29.231 62.054 29.231 96.358-0.053 45.984-18.343 90.070-50.857 122.584-32.516 32.516-76.602 50.806-122.586 50.858zM576.316 502.096h-43.99c3.194 15.997 5.111 32.22 5.728 48.522h51.652c-1.594-16.834-6.126-33.256-13.39-48.522zM312.436 626.53h43.983c-3.188-15.997-5.102-32.22-5.728-48.522h-51.652c1.596 16.834 6.131 33.256 13.397 48.522zM458.073 653.922v52.669c14.274-7.451 28.095-26.021 38.051-52.685l-38.051 0.016zM504.247 626.53c3.566-15.952 5.701-32.189 6.378-48.522h-52.551v48.522h46.173zM430.681 706.607v-52.685h-38.051c9.955 26.608 23.775 45.219 38.051 52.669v0.016zM430.681 626.53v-48.522h-52.551c0.672 16.333 2.807 32.572 6.378 48.522h46.173zM299.024 550.618h51.652c0.626-16.302 2.54-32.525 5.728-48.522h-43.983c-7.266 15.267-11.8 31.688-13.397 48.522zM378.13 550.618h52.551v-48.522h-46.173c-3.571 15.95-5.705 32.189-6.378 48.522zM430.681 474.704v-52.685c-14.276 7.442-28.095 26.021-38.059 52.685h38.059zM458.073 422.019v52.685h38.051c-9.955-26.671-23.777-45.243-38.051-52.685zM458.073 502.096v48.522h52.551c-0.677-16.333-2.812-32.57-6.378-48.522h-46.173zM538.054 578.008c-0.621 16.302-2.536 32.525-5.728 48.522h43.99c7.273-15.264 11.814-31.688 13.414-48.522h-51.676zM559.451 653.922h-34.208c-4.681 15.024-11.255 29.391-19.565 42.754 21.059-9.793 39.489-24.445 53.773-42.754zM383.036 696.661c-8.294-13.361-14.857-27.724-19.527-42.739h-34.206c14.276 18.296 32.692 32.944 53.733 42.739zM329.294 474.704h34.215c4.67-15.022 11.231-29.389 19.527-42.754-21.045 9.799-39.464 24.451-53.742 42.754zM505.709 431.943c8.31 13.365 14.884 27.735 19.565 42.761h34.217c-14.289-18.312-32.723-32.962-53.782-42.761z" />
<glyph unicode="&#xe90b;" horiz-adv-x="1006" d="M713.143 959.286c161.583 0 292.571-130.989 292.571-292.571s-130.989-292.571-292.571-292.571c-161.583 0-292.571 130.989-292.571 292.571s130.989 292.571 292.571 292.571z" />
<glyph unicode="&#xe90c;" horiz-adv-x="1006" d="M411.429 634c-61.782-0.069-121.013-24.642-164.699-68.328s-68.263-102.914-68.336-164.696c0-203.739 219.15-303.177 228.477-307.286 1.435-0.635 2.988-0.964 4.559-0.964s3.123 0.329 4.559 0.964c9.328 4.134 228.476 103.572 228.476 307.286-0.073 61.782-24.649 121.011-68.336 164.696s-102.917 68.259-164.699 68.328zM411.429 116.398c-31.146 15.267-210.536 110.866-210.536 284.579 0 55.839 22.182 109.389 61.665 148.871 39.483 39.484 93.034 61.665 148.871 61.665s109.389-22.181 148.871-61.665c39.483-39.483 61.665-93.032 61.665-148.871 0-173.475-179.421-269.286-210.536-284.579z" />
<glyph unicode="&#xe90d;" horiz-adv-x="1006" d="M411.425 573.857c-34.194 0-67.621-10.139-96.053-29.138-28.432-18.997-50.591-46-63.676-77.592s-16.508-66.355-9.836-99.893c6.671-33.538 23.139-64.344 47.32-88.523 24.179-24.179 54.987-40.644 88.525-47.312 33.538-6.671 68.301-3.246 99.893 9.843 31.59 13.087 58.591 35.249 77.588 63.682 18.995 28.434 29.133 61.862 29.131 96.057-0.057 45.835-18.289 89.776-50.701 122.185s-76.356 50.639-122.191 50.692zM323.836 278.837v13.797c0.011 15.77 6.277 30.892 17.426 42.044 11.149 11.154 26.267 17.428 42.039 17.445h56.249c15.766-0.016 30.881-6.287 42.030-17.435 11.147-11.147 17.419-26.264 17.435-42.028v-13.822c-25.512-18.37-56.152-28.253-87.59-28.253s-62.076 9.883-87.589 28.253zM521.225 298.353c-1.456 20.674-10.686 40.027-25.832 54.171-15.146 14.146-35.087 22.031-55.81 22.073h-56.251c-20.723-0.042-40.664-7.927-55.81-22.073-15.146-14.144-24.375-33.498-25.832-54.171-20.036 21.409-33.377 48.205-38.384 77.096-5.005 28.89-1.456 58.613 10.211 85.513s30.943 49.803 55.457 65.891 53.195 24.658 82.516 24.658c29.321 0 58.002-8.571 82.514-24.658 24.514-16.088 43.791-38.991 55.457-65.891s15.216-56.624 10.211-85.513c-5.005-28.891-18.346-55.687-38.382-77.096h-0.066z" />
<glyph unicode="&#xe90e;" horiz-adv-x="1006" d="M6.943 562.935c2.055-0.852 4.317-1.075 6.499-0.642s4.187 1.505 5.76 3.079l65.256 65.249 89.556-89.556c2.111-2.11 4.973-3.297 7.958-3.297 0.395-0.002 0.79 0.020 1.183 0.064 1.668 0.174 3.275 0.72 4.703 1.598s2.642 2.064 3.551 3.474c11.264 17.382 24.53 33.381 39.528 47.667 1.088 1.035 1.957 2.277 2.555 3.653 0.6 1.375 0.918 2.858 0.936 4.357 0.018 1.501-0.265 2.99-0.83 4.379-0.567 1.39-1.406 2.653-2.467 3.714l-85.308 85.314 65.25 65.256c1.567 1.571 2.635 3.573 3.067 5.749 0.433 2.178 0.21 4.434-0.638 6.486s-2.284 3.807-4.129 5.043c-1.843 1.236-4.012 1.898-6.232 1.904h-191.893c-2.98 0-5.839-1.181-7.948-3.288-2.109-2.105-3.297-4.963-3.302-7.941v-191.874c0-2.225 0.66-4.4 1.895-6.248s2.992-3.29 5.047-4.142zM22.5 753.929h153.463l-54-54.001c-1.046-1.044-1.875-2.284-2.441-3.648-0.566-1.366-0.857-2.829-0.857-4.306s0.291-2.94 0.857-4.306c0.566-1.364 1.395-2.606 2.441-3.65l85.275-85.268c-9.741-10.057-18.732-20.813-26.903-32.181l-87.924 87.916c-1.044 1.046-2.284 1.876-3.649 2.441-1.365 0.567-2.828 0.858-4.306 0.858s-2.941-0.291-4.306-0.858c-1.365-0.565-2.605-1.395-3.649-2.441l-54-54v153.445z" />
<glyph unicode="&#xe90f;" horiz-adv-x="1006" d="M214.773 211.557c-0.967 1.293-2.2 2.361-3.615 3.136-1.415 0.773-2.981 1.234-4.59 1.349-1.609 0.117-3.224-0.115-4.736-0.678-1.51-0.563-2.884-1.445-4.025-2.586l-113.349-113.355-65.256 65.256c-1.573 1.573-3.577 2.642-5.759 3.076s-4.443 0.212-6.498-0.64c-2.055-0.85-3.812-2.291-5.048-4.14-1.236-1.851-1.897-4.025-1.898-6.248v-191.874c-0.003-1.479 0.287-2.944 0.851-4.31 0.564-1.368 1.392-2.611 2.437-3.657s2.286-1.878 3.652-2.443c1.366-0.567 2.831-0.859 4.31-0.859h191.893c2.225-0.002 4.401 0.656 6.252 1.893s3.293 2.993 4.145 5.049c0.852 2.057 1.073 4.319 0.638 6.502s-1.509 4.187-3.083 5.758l-65.251 65.258 110.314 110.327c1.050 1.050 1.88 2.295 2.445 3.668 0.565 1.371 0.854 2.842 0.848 4.325s-0.305 2.951-0.88 4.319c-0.576 1.368-1.415 2.608-2.472 3.65-14.938 14.685-28.754 30.471-41.328 47.225zM121.963 46.014c-1.045-1.044-1.875-2.284-2.44-3.648s-0.857-2.827-0.857-4.304c0-1.477 0.291-2.94 0.857-4.304s1.395-2.604 2.44-3.648l54-54h-153.463v153.45l54-54c1.044-1.046 2.284-1.876 3.649-2.441 1.365-0.567 2.828-0.858 4.306-0.858s2.941 0.291 4.306 0.858c1.365 0.565 2.605 1.395 3.649 2.441l112.269 112.269c8.563-10.73 17.814-21.248 27.643-31.437l-110.359-110.378z" />
<glyph unicode="&#xe910;" horiz-adv-x="1006" d="M815.92 167.117c-2.055 0.852-4.317 1.077-6.499 0.642-2.183-0.433-4.187-1.505-5.76-3.077l-65.256-65.256-113.355 113.355c-1.145 1.136-2.518 2.015-4.030 2.578-1.51 0.563-3.123 0.797-4.732 0.688-1.609-0.117-3.174-0.58-4.59-1.357-1.415-0.775-2.644-1.849-3.608-3.143-12.575-16.742-26.39-32.517-41.329-47.194-1.055-1.040-1.896-2.282-2.47-3.65-0.574-1.366-0.874-2.834-0.88-4.319-0.005-1.483 0.283-2.953 0.848-4.325s1.395-2.619 2.445-3.668l110.332-110.34-65.249-65.243c-1.582-1.571-2.661-3.575-3.099-5.758-0.441-2.183-0.221-4.449 0.629-6.51 0.85-2.059 2.293-3.82 4.145-5.058s4.030-1.898 6.257-1.896h191.894c2.982 0 5.844 1.185 7.954 3.295s3.295 4.972 3.295 7.956v191.892c-0.002 2.224-0.662 4.398-1.896 6.246-1.236 1.849-2.992 3.291-5.047 4.142zM800.362-23.914h-153.463l54 54c1.046 1.044 1.876 2.284 2.441 3.648 0.567 1.364 0.858 2.827 0.858 4.304s-0.291 2.94-0.858 4.304c-0.565 1.364-1.395 2.604-2.441 3.648l-110.371 110.404c9.841 10.189 19.092 20.707 27.643 31.437l112.269-112.263c1.044-1.046 2.284-1.874 3.65-2.441 1.364-0.565 2.827-0.856 4.304-0.856s2.942 0.291 4.306 0.856c1.366 0.567 2.606 1.395 3.65 2.441l54 54 0.013-153.481z" />
<glyph unicode="&#xe911;" horiz-adv-x="1006" d="M811.61 776.428h-191.894c-2.225 0.002-4.401-0.656-6.252-1.893-1.851-1.234-3.293-2.992-4.145-5.049-0.852-2.055-1.073-4.319-0.638-6.501s1.509-4.187 3.085-5.76l65.249-65.256-85.288-85.294c-1.061-1.061-1.9-2.324-2.465-3.714-0.567-1.39-0.85-2.878-0.832-4.379 0.018-1.499 0.336-2.982 0.936-4.357 0.6-1.377 1.468-2.619 2.555-3.653 14.996-14.288 28.262-30.287 39.528-47.667 0.911-1.41 2.123-2.597 3.551-3.474 1.43-0.878 3.037-1.424 4.703-1.598 0.393-0.044 0.788-0.066 1.183-0.064 2.986 0 5.848 1.187 7.96 3.297l89.556 89.556 65.256-65.249c1.573-1.573 3.577-2.642 5.758-3.076s4.443-0.212 6.499 0.64c2.055 0.85 3.811 2.291 5.047 4.14s1.898 4.023 1.898 6.248v191.874c-0.005 2.979-1.192 5.837-3.302 7.941-2.108 2.107-4.966 3.288-7.947 3.288zM800.358 600.485l-54 54c-1.044 1.046-2.284 1.876-3.65 2.441-1.364 0.567-2.827 0.858-4.304 0.858s-2.942-0.291-4.306-0.858c-1.366-0.565-2.606-1.395-3.65-2.441l-87.923-87.916c-8.17 11.368-17.163 22.124-26.904 32.181l85.275 85.281c1.044 1.044 1.874 2.286 2.441 3.65 0.565 1.366 0.856 2.829 0.856 4.306s-0.291 2.94-0.856 4.306c-0.567 1.364-1.397 2.604-2.441 3.648l-54.001 54.001h153.463v-153.457z" />
<glyph unicode="&#xe912;" horiz-adv-x="1006" d="M411.429 519.259c-12.626 0.704-25.172-2.397-36.017-8.903-10.843-6.504-19.487-16.113-24.81-27.584-5.321-11.471-7.080-24.276-5.047-36.756 2.035-12.482 7.766-24.066 16.455-33.253s19.937-15.556 32.285-18.282c12.348-2.725 25.231-1.682 36.979 2.993s21.826 12.771 28.924 23.236c7.099 10.465 10.893 22.819 10.895 35.465 0.421 16.269-5.621 32.042-16.803 43.866-11.184 11.824-26.595 18.734-42.862 19.218zM411.429 415.598c-8.177-0.72-16.382 1.048-23.539 5.071-7.157 4.025-12.93 10.116-16.565 17.477-3.633 7.362-4.959 15.649-3.802 23.777s4.745 15.717 10.289 21.771c5.546 6.054 12.791 10.291 20.785 12.158 7.995 1.865 16.368 1.271 24.018-1.704 7.653-2.975 14.226-8.192 18.862-14.967 4.635-6.777 7.115-14.795 7.115-23.005 0.419-10.299-3.255-20.345-10.218-27.946s-16.649-12.136-26.946-12.619v-0.013z" />
<glyph unicode="&#xe913;" horiz-adv-x="1006" d="M713.143 959.286c161.583 0 292.571-130.989 292.571-292.571s-130.989-292.571-292.571-292.571c-161.583 0-292.571 130.989-292.571 292.571s130.989 292.571 292.571 292.571z" />
<glyph unicode="&#xe914;" horiz-adv-x="1006" d="M762.721 543.382c0.002 34.198-10.138 67.626-29.135 96.059-18.999 28.434-46.001 50.597-77.594 63.684s-66.357 16.51-99.897 9.84c-33.54-6.671-64.347-23.137-88.527-47.318s-40.647-54.989-47.32-88.528c-6.671-33.538-3.246-68.303 9.841-99.895 13.087-31.594 35.248-58.597 63.682-77.594 28.434-18.999 61.862-29.136 96.059-29.136 45.839 0.051 89.783 18.284 122.196 50.695 32.411 32.411 50.642 76.357 50.693 122.194zM439.435 543.382c-0.002 29.747 8.819 58.825 25.344 83.558s40.013 44.012 67.494 55.395c27.482 11.385 57.721 14.363 86.896 8.561s55.973-20.125 77.007-41.159c21.034-21.032 35.359-47.83 41.163-77.005 5.802-29.175 2.825-59.414-8.558-86.896s-30.66-50.971-55.393-67.498c-24.733-16.525-53.811-25.346-83.557-25.346-39.872 0.046-78.098 15.905-106.293 44.098-28.195 28.195-44.056 66.419-44.103 106.291z" />
<glyph unicode="&#xe915;" horiz-adv-x="1006" d="M675.013 197.021h-388.125v38.102h302.947c1.551 0.005 3.083 0.333 4.5 0.965h0.038c9.348 4.127 228.496 103.563 228.496 307.304 0 61.806-24.552 121.079-68.255 164.782-43.701 43.703-102.976 68.253-164.78 68.253-61.806 0-121.079-24.55-164.782-68.253s-68.255-102.976-68.255-164.782c0-105.898 59.207-183.556 117.38-234.341h-192.112c-18.322-0.020-35.888-7.309-48.843-20.264s-20.244-30.521-20.264-48.843v-47.726c0.020-18.322 7.309-35.888 20.264-48.843 12.955-12.957 30.521-20.244 48.843-20.264h388.125v-33.32h-478.928c-8.587 21.394-24.354 39.131-44.595 50.167s-43.691 14.678-66.326 10.306c-22.634-4.372-43.041-16.49-57.714-34.269s-22.7-40.113-22.7-63.166c0-23.055 8.026-45.387 22.7-63.168 14.674-17.779 35.080-29.895 57.714-34.269 22.635-4.372 46.085-0.73 66.326 10.306s36.008 28.773 44.595 50.167h483.75c18.322 0.020 35.888 7.307 48.843 20.262 12.955 12.957 20.244 30.523 20.264 48.845v42.962c-0.026 18.319-7.316 35.878-20.272 48.83-12.954 12.952-30.517 20.237-48.836 20.257zM379.299 543.393c0 55.837 22.181 109.389 61.665 148.871 39.483 39.483 93.034 61.665 148.871 61.665s109.387-22.182 148.871-61.665c39.483-39.483 61.663-93.034 61.663-148.871 0-173.462-179.421-269.274-210.542-284.573-31.139 15.274-210.529 110.866-210.529 284.573zM99.251-23.949c-15.178 0-30.015 4.502-42.636 12.933s-22.457 20.418-28.266 34.439c-5.809 14.023-7.329 29.453-4.369 44.339s10.268 28.562 21 39.294c10.732 10.734 24.405 18.044 39.291 21.007s30.316 1.445 44.34-4.361c14.023-5.808 26.010-15.642 34.444-28.261s12.938-27.454 12.94-42.633c-0.019-20.348-8.11-39.859-22.498-54.25s-33.897-22.484-54.246-22.508zM721.62 84.952c-0.013-12.356-4.928-24.203-13.665-32.942-8.739-8.737-20.586-13.652-32.942-13.665h-477.694c1.569 9.578 1.569 19.35 0 28.928h477.694c4.687 0.005 9.181 1.869 12.495 5.184 3.315 3.313 5.179 7.808 5.184 12.495v42.962c-0.004 4.688-1.867 9.183-5.182 12.496-3.315 3.315-7.81 5.179-12.496 5.182h-392.947c-12.356 0.015-24.203 4.928-32.94 13.667-8.739 8.737-13.654 20.584-13.667 32.94v47.726c0.013 12.357 4.928 24.205 13.667 32.942 8.737 8.737 20.584 13.652 32.94 13.667h219.915c13.831-10.361 28.176-20.016 42.982-28.93h-262.897c-4.687-0.004-9.181-1.867-12.496-5.18-3.315-3.315-5.179-7.81-5.182-12.498v-47.726c0.005-4.687 1.871-9.179 5.184-12.495 3.313-3.313 7.808-5.179 12.495-5.184h392.947c12.356-0.013 24.203-4.928 32.942-13.665 8.737-8.739 13.652-20.584 13.665-32.942v-42.962z" />
<glyph unicode="&#xe916;" horiz-adv-x="1006" d="M713.143 959.286c161.583 0 292.571-130.989 292.571-292.571s-130.989-292.571-292.571-292.571c-161.583 0-292.571 130.989-292.571 292.571s130.989 292.571 292.571 292.571z" />
<glyph unicode="&#xe917;" horiz-adv-x="1006" d="M726.327 283.566c27.068 79.766 26.352 166.345-2.033 245.654-28.383 79.309-82.765 146.681-154.3 191.159-71.534 44.478-156.012 63.446-239.695 53.819-83.683-9.629-161.647-47.287-221.211-106.849s-97.224-137.525-106.854-221.208c-9.631-83.681 9.334-168.161 53.811-239.696s111.847-125.919 191.155-154.306c79.307-28.387 165.886-29.105 245.656-2.039 12.304-24.724 30.314-46.168 52.542-62.559 22.226-16.389 48.035-27.259 75.291-31.707s55.179-2.352 81.465 6.12 50.18 23.075 69.709 42.604c19.527 19.527 34.132 43.421 42.604 69.707 8.474 26.284 10.571 54.208 6.124 81.465-4.449 27.257-15.316 53.065-31.707 75.291-16.389 22.228-37.831 40.24-62.555 52.546zM705.543 292.308c-42.785 14.835-89.673 12.361-130.661-6.892l16.488 28.78c0.976 1.704 1.488 3.632 1.487 5.594v53.197l34.959 35.961c2.043 2.099 3.185 4.913 3.182 7.843v45.765c0 2.456-0.805 4.846-2.291 6.802-1.485 1.955-3.571 3.372-5.937 4.030l-61.714 17.203-22.822 44.652c-0.808 1.58-1.979 2.946-3.414 3.988-1.437 1.040-3.099 1.728-4.853 2.004l-87.492 13.764v8.589l118.106 26.138 44.131-44.1c2.112-2.11 4.974-3.295 7.96-3.299h82.156c34.253-79.164 38.069-168.188 10.717-249.993v-0.026zM684.065 564.802h-66.741l-45.173 45.193c-1.339 1.335-2.99 2.313-4.804 2.843s-3.732 0.596-5.579 0.19l-132.976-29.424c-2.5-0.554-4.736-1.944-6.338-3.941-1.604-1.995-2.48-4.478-2.481-7.038v-27.246c0.002-2.679 0.958-5.27 2.701-7.307 1.741-2.037 4.153-3.385 6.8-3.802l91.33-14.362 22.457-43.944c0.706-1.386 1.693-2.608 2.896-3.591 1.205-0.984 2.598-1.708 4.098-2.125l58.242-16.232v-32.656l-34.959-35.961c-2.041-2.101-3.182-4.915-3.182-7.845v-54.764l-37.144-64.858c-15.033-13.334-27.663-29.151-37.338-46.762h-25.072v35.608c0 1.56-0.325 3.101-0.953 4.529s-1.543 2.71-2.692 3.763l-48.653 44.608v51.725c0 2.309-0.709 4.562-2.035 6.453-1.324 1.891-3.2 3.328-5.371 4.116l-100.491 36.539v83.573l65.662 70.899c1.062 1.148 1.876 2.507 2.384 3.988 0.51 1.479 0.704 3.050 0.572 4.61s-0.591 3.076-1.342 4.449-1.781 2.575-3.023 3.527l-60.056 46.067 49.216 69.427h100.434c2.982 0.002 5.844 1.189 7.952 3.299l37.658 37.652c74.871-32.035 136.349-88.991 173.996-161.203zM146.753 670.771l28.247-58.185-22.744-11.379c-1.118-0.558-2.135-1.298-3.009-2.192l-53.396-54.482c-1.476-1.505-2.499-3.394-2.954-5.453-0.455-2.057-0.322-4.202 0.382-6.188l7.656-21.524c-8.777-5.409-16.726-12.058-23.599-19.741l-45.366-7.638c17.331 72.922 57.555 138.377 114.782 186.783zM22.591 400.090h36.855l92.989-34.979 47.572-80.538v-32.232l-13.937-21.162c-1.527-2.315-2.145-5.111-1.735-7.854 0.408-2.741 1.816-5.235 3.953-7.003l3.535-2.918-33.743-20.173c-1.669-0.997-3.050-2.41-4.010-4.1s-1.465-3.6-1.467-5.542v-52.476c-40.177 32.461-72.67 73.413-95.148 119.918s-34.384 97.41-34.863 149.060zM373.058 52.811c-70.711-0.064-139.767 21.385-198 61.497 0 0.141 0.039 0.276 0.039 0.417v62.468l41.928 25.070c1.547 0.923 2.851 2.205 3.8 3.736 0.949 1.532 1.516 3.269 1.653 5.065s-0.159 3.6-0.865 5.259c-0.704 1.657-1.797 3.121-3.187 4.268l-8.022 6.641 10.24 15.545c1.214 1.836 1.86 3.99 1.858 6.19v38.687c0.002 2.011-0.538 3.986-1.562 5.716l-51.146 86.592c-1.305 2.211-3.326 3.908-5.728 4.809l-98.614 37.1c-1.266 0.475-2.607 0.719-3.96 0.719h-38.436c0.707 12.663 2.095 25.276 4.159 37.787l57.857 9.733c2.672 0.45 5.091 1.849 6.814 3.941 7.631 9.238 17.128 16.761 27.868 22.076 2.458 1.227 4.382 3.312 5.409 5.861s1.085 5.385 0.165 7.973l-8.486 23.863 47.16 48.119 31.006 15.504c2.648 1.326 4.667 3.641 5.619 6.444 0.955 2.805 0.764 5.872-0.528 8.536l-35.306 72.7c45.632 33.843 98.825 56.053 154.975 64.706 56.148 8.653 113.56 3.489 167.263-15.045l-27.231-27.231h-101.59c-1.797 0-3.569-0.432-5.166-1.258-1.598-0.825-2.975-2.021-4.016-3.485l-58.84-83.013c-1.682-2.373-2.377-5.307-1.944-8.185 0.435-2.876 1.969-5.473 4.277-7.243l58.854-45.142-60.262-65.031c-1.929-2.081-3.001-4.813-3.003-7.651v-95.914c0-2.308 0.711-4.56 2.037-6.451 1.324-1.891 3.2-3.328 5.369-4.116l100.493-36.54v-48.794c0-1.56 0.324-3.101 0.951-4.529 0.627-1.426 1.545-2.708 2.693-3.763l48.658-44.601v-41.915c0-2.984 1.185-5.846 3.295-7.956 2.11-2.108 4.97-3.295 7.954-3.295h26.017c-14.199-37.897-14.715-79.565-1.459-117.802-35.803-11.975-73.307-18.074-111.060-18.059zM648.702-23.945c-29.998-0.002-59.323 8.892-84.266 25.558s-44.383 40.353-55.863 68.067c-11.482 27.714-14.486 58.211-8.633 87.632 5.851 29.42 20.297 56.446 41.509 77.658s48.238 35.657 77.659 41.509c29.42 5.853 59.917 2.849 87.631-8.633 27.716-11.48 51.403-30.921 68.067-55.863 16.666-24.944 25.56-54.268 25.558-84.266-0.046-40.208-16.038-78.758-44.471-107.191s-66.982-44.425-107.191-44.471z" />
<glyph unicode="&#xe918;" horiz-adv-x="1006" d="M769.148 191.294l-14.305 14.31c-6.976 6.976-16.439 10.895-26.306 10.895-9.865 0-19.328-3.919-26.306-10.895l-30.009-30.003-51.171 11.849c-6.866 1.611-14.031 1.437-20.811-0.505s-12.95-5.588-17.922-10.591l-11.822-11.829c-1.296-1.295-2.256-2.885-2.8-4.637-0.541-1.75-0.645-3.606-0.305-5.405 0.338-1.801 1.114-3.491 2.255-4.924 1.143-1.432 2.617-2.564 4.297-3.297l47.989-20.957-18.9-18.893-44.943-4.167c-2.609-0.23-5.056-1.368-6.917-3.213l-22.938-22.932c-1.384-1.386-2.383-3.11-2.896-5.003-0.514-1.891-0.525-3.884-0.031-5.78 0.492-1.896 1.472-3.632 2.842-5.034s3.081-2.423 4.966-2.96l56.133-15.969c10.82-3.076 22.263-3.209 33.148-0.384 10.887 2.825 20.822 8.507 28.778 16.455l117.972 117.972c1.044 1.044 1.874 2.282 2.439 3.648 0.567 1.364 0.858 2.827 0.858 4.304s-0.291 2.939-0.858 4.304c-0.565 1.364-1.395 2.597-2.439 3.641zM635.266 73.329c-5.12-5.118-11.513-8.777-18.52-10.598-7.007-1.819-14.373-1.737-21.338 0.241l-37.709 10.725 6.517 6.517 44.943 4.173c2.611 0.23 5.058 1.368 6.917 3.215l33.428 33.428c1.296 1.295 2.255 2.885 2.796 4.635 0.539 1.75 0.644 3.606 0.304 5.405s-1.115 3.489-2.256 4.921c-1.141 1.432-2.617 2.564-4.295 3.295l-47.982 20.965 0.166 0.166c2.275 2.295 5.1 3.966 8.205 4.855 3.107 0.889 6.387 0.965 9.532 0.225l57.258-13.257c1.86-0.43 3.798-0.38 5.634 0.146 1.834 0.527 3.504 1.512 4.851 2.864l34.427 34.412c2.798 2.679 6.521 4.175 10.394 4.175 3.875 0 7.598-1.496 10.395-4.175l6.352-6.352-110.020-109.979z" />
<glyph unicode="&#xe919;" glyph-name="line" horiz-adv-x="5325" d="M4834.253 736.367c-81.91-22.865-166.103-36.555-251.034-40.819l-684.39-74.154c-154.829-17.686-307.528-50.731-455.813-98.646-80.814-27.203-158.556-62.771-231.987-106.128-79.483-53.559-162.181-102.18-247.634-145.586-51.487-24.103-107.786-36.199-164.628-35.376-62.597 3.64-121.774 29.727-166.676 73.473-86.405 89.121-110.213 197.291-166.676 266.682-23.357 34.076-58.501 58.307-98.652 68.031-43.039 9.541-87.921 6.471-129.26-8.843-92.815-33.762-170.67-99.324-219.74-185.045-59.187-87.761-105.441-187.766-172.8-281.649-65.546-100.879-162.683-177.196-276.204-217.019-59.587-17.018-122.737-17.018-182.323 0-56.453 16.743-108.493 45.786-152.392 85.038-78.479 72.024-139.643 160.868-178.924 259.88-39.454 91.162-68.027 179.602-107.486 257.158-45.247 106.014-127.408 192.017-231.245 242.059s-222.299 60.724-333.412 30.066c-59.019-14.878-114.185-42.174-161.816-80.067-47.63-37.893-86.627-85.512-114.391-139.676-44.405-83.59-65.552-177.57-61.23-272.124 1.704-60.583 14.624-120.325 38.099-176.201 15.647-39.459 26.532-59.187 23.131-61.909-3.402-2.721-19.73 14.287-42.86 51.705-33.394 55.806-54.069 118.292-60.549 183.004-13.029 103.521 3.973 208.606 48.983 302.738 29.472 64.037 72.365 120.99 125.771 167.002 53.407 46.011 116.081 80.006 183.772 99.68 82.674 24.131 169.698 29.446 254.693 15.555s165.803-46.636 236.492-95.832c76.918-57.477 138.581-132.922 179.602-219.74 44.216-85.039 75.51-174.84 114.289-259.878 34.222-84.73 87.265-160.569 155.116-221.783 30.956-29.759 69.13-50.933 110.766-61.432 41.646-10.499 85.299-9.958 126.659 1.566 89.252 33.451 165.345 94.758 217.027 174.84 59.187 82.317 105.441 182.323 170.076 278.927 32.87 50.088 71.956 95.806 116.326 136.063 46.756 40.638 101.089 71.621 159.877 91.162 60.672 20.747 125.891 24.28 188.447 10.204 63.468-15.685 119.357-53.268 157.829-106.128 72.12-96.604 96.604-204.093 155.116-257.838 26.552-26.637 61.809-42.819 99.328-45.58 41.329-0.316 82.217 8.51 119.736 25.851 82.145 40.709 161.884 86.139 238.787 136.062 79.626 45.643 164.045 82.375 251.709 109.53 155.156 46.404 314.788 76.277 476.221 89.121 292.536 24.491 527.237 31.975 690.514 40.14 84.48 8.024 169.585 6.654 253.757-4.083zM4656.763 313.933c-5.437 14.287 68.035 54.426 178.924 121.095 55.788 33.335 121.774 74.155 192.522 122.457 35.379 23.811 68.035 50.343 108.851 77.556 17.48 11.887 33.669 25.566 48.302 40.818 12.247 12.014 21.955 26.355 28.57 42.18 3.41 12.926 0 12.246 0 17.009-9.861 9.021-22.159 14.937-35.369 17.008l-131.983 35.375c-84.357 23.131-159.867 45.581-223.14 68.031-126.536 40.818-204.093 73.474-199.332 87.761s86.395 8.844 217.702-12.926c68.024-10.885 142.858-25.852 228.577-43.54l136.069-29.934c34.785-6.331 66.683-23.471 91.156-48.983 15.165-17.194 24.873-38.504 27.894-61.227 2.785-20.882 0.451-42.129-6.799-61.909-11.407-30.817-29.532-58.706-53.064-81.637-19.18-19.727-40.643-37.086-63.949-51.703-39.465-28.574-79.596-53.746-117.699-76.876-67.983-40.657-138.936-76.133-212.255-106.128-126.536-53.065-209.531-68.031-214.979-54.426z" />
<glyph unicode="&#xe91a;" glyph-name="true" horiz-adv-x="1365" d="M1253.333 844.667c34.671-32 34.671-88 0-120l-682.667-682.666c-32-34.671-88-34.671-120 0l-341.333 341.332c-34.667 32-34.667 88 0 120 32 34.667 88 34.667 120 0l280-280 623.996 621.333c32 34.666 88.004 34.666 120.004 0z" />
<glyph unicode="&#xe91b;" glyph-name="arrow-left1" horiz-adv-x="1097" d="M1094.861 444.857c0-41.143-32.007-73.143-70.861-73.143h-701.714l240-242.288c29.714-27.429 29.714-75.425 0-102.853-13.714-13.714-32-20.575-50.286-20.575-20.571 0-38.857 6.861-52.571 20.575l-365.714 365.713c-29.714 27.429-29.714 75.429 0 102.857l365.714 365.714c27.429 29.714 75.429 29.714 102.857 0 29.714-27.429 29.714-75.429 0-102.857l-240-240h701.714c38.853 0 70.861-34.286 70.861-73.143z" />
<glyph unicode="&#xe91c;" glyph-name="qoute" horiz-adv-x="1728" d="M891.914 61.178c-12.138 9.712-14.563 21.85-9.709 42.486l233.056 807.202c3.642 15.78 16.995 26.705 33.987 26.705h548.656c21.85 0 30.346-9.711 30.346-30.346v-82.541c-1.213-15.78-6.070-30.346-14.566-42.484l-609.347-803.562c-9.709-14.566-30.346-19.421-46.125-9.709l-166.298 92.25zM37.373 61.178c-12.138 9.712-14.566 21.85-9.711 42.486l233.057 807.202c3.642 16.994 19.421 27.919 36.415 26.705h546.229c21.846 0 30.346-9.711 30.346-30.346v-82.541c-1.216-15.78-6.070-30.346-14.566-42.484l-606.92-803.562c-9.711-14.566-30.346-19.421-46.126-8.496l-168.724 91.037z" />
<glyph unicode="&#xe91d;" glyph-name="user" horiz-adv-x="866" d="M502.154 355.692c179.077 0 324.923-145.846 324.923-324.925 0-33.233-27.695-59.077-59.077-59.077h-708.923c-33.231 0-59.077 25.844-59.077 59.077 0 179.079 144 324.925 324.923 324.925h177.231zM88.615 60.306h648c-14.769 116.31-114.461 206.771-234.461 206.771h-177.231c-121.847 0-221.538-90.461-236.308-206.771zM413.538 444.307c-131.077 0-236.308 105.231-236.308 236.308 0 129.231 105.231 236.308 236.308 236.308 129.23 0 236.308-107.077 236.308-236.308 0-131.077-107.077-236.308-236.308-236.308zM413.538 828.307c-83.077 0-147.692-66.461-147.692-147.692 0-83.076 64.615-147.692 147.692-147.692 81.231 0 147.692 64.616 147.692 147.692 0 81.232-66.462 147.692-147.692 147.692z" />
<glyph unicode="&#xe91e;" glyph-name="icon-1" horiz-adv-x="866" d="M280.615 798.769h265.846v73.846c0 24 18.462 44.308 44.308 44.308 24 0 44.308-20.308 44.308-44.308v-73.846h73.846c64.615 0 118.154-53.538 118.154-118.154v-590.771c0-66.458-53.539-118.154-118.154-118.154h-590.769c-66.462 0-118.154 51.696-118.154 118.154v590.771c0 64.616 51.692 118.154 118.154 118.154h73.846v73.846c0 24 18.462 44.308 44.308 44.308 24 0 44.308-20.308 44.308-44.308v-73.846zM88.615 459.077h147.692v103.385h-147.692v-103.385zM88.615 370.461v-118.154h147.692v118.154h-147.692zM324.923 370.461v-118.154h177.231v118.154h-177.231zM590.769 370.461v-118.154h147.692v118.154h-147.692zM738.462 562.461h-147.692v-103.385h147.692v103.385zM738.462 163.69h-147.692v-103.385h118.154c14.769 0 29.538 12.926 29.538 29.538v73.846zM502.154 163.69h-177.231v-103.385h177.231v103.385zM236.308 163.69h-147.692v-73.846c0-16.612 12.923-29.538 29.538-29.538h118.154v103.385zM502.154 562.461h-177.231v-103.385h177.231v103.385z" />
<glyph unicode="&#xe91f;" glyph-name="arro" horiz-adv-x="683" d="M149.333 17.664c-21 0-39.666 7.006-53.667 21.001-30.333 27.998-30.333 77.002 0 105.002l319.667 322-319.667 319.666c-30.333 28-30.333 77.001 0 105 28 30.333 77.001 30.333 105 0l373.333-373.334c30.333-28 30.333-77 0-105l-373.333-373.335c-14-13.995-32.666-21.001-51.333-21.001z" />
<glyph unicode="&#xe920;" glyph-name="uniE920" horiz-adv-x="1365" d="M1253.333 844c34.671-32 34.671-87.999 0-119.999l-682.667-682.665c-32-34.671-88-34.671-120 0l-341.333 341.332c-34.667 32-34.667 87.999 0 119.999 32 34.668 88 34.668 120 0l280-279.999 623.996 621.332c32 34.667 88.004 34.667 120.004 0z" />
</font>
</defs>
</svg>
